<?xml version="1.0" encoding="utf-8"?>
<!-- Generator: Adobe Illustrator 27.0.0, SVG Export Plug-In . SVG Version: 6.00 Build 0)  -->
<svg version="1.1"
	 id="svg4380" xmlns:rdf="http://www.w3.org/1999/02/22-rdf-syntax-ns#" xmlns:inkscape="http://www.inkscape.org/namespaces/inkscape" xmlns:dc="http://purl.org/dc/elements/1.1/" xmlns:sodipodi="http://sodipodi.sourceforge.net/DTD/sodipodi-0.dtd" xmlns:cc="http://creativecommons.org/ns#" inkscape:version="0.48.3.1 r9886" sodipodi:docname="_svgclean2.svg"
	 xmlns="http://www.w3.org/2000/svg" xmlns:xlink="http://www.w3.org/1999/xlink" x="0px" y="0px" viewBox="0 0 410.7 331"
	 style="enable-background:new 0 0 410.7 331;" xml:space="preserve">
<style type="text/css">
	.st0{fill:#283536;stroke:#000000;stroke-width:2.2415;}
	
		.st1{fill:url(#path3254_00000101792494768086100780000002839743905732112574_);stroke:#C19B47;stroke-width:2.2414;stroke-miterlimit:4.7224;}
	
		.st2{fill:url(#path3256_00000058567224306457883590000003355625454366062746_);stroke:#EED517;stroke-width:2.2414;stroke-miterlimit:4.7224;}
	
		.st3{fill:url(#path3258_00000070810734928644277220000016496761639997638847_);stroke:#D8C261;stroke-width:2.2414;stroke-miterlimit:4.7224;}
	.st4{fill:url(#path3262_00000040536183197198938770000014073929352685347207_);}
	.st5{fill:#F2F4A7;fill-opacity:0.5775;}
	.st6{fill:url(#path3266_00000106113035003683781060000015565775767875873927_);}
	.st7{fill:#F2F4A7;stroke:#F2F4A7;stroke-miterlimit:4.7224;}
	.st8{font-family:'Impact';}
	.st9{font-size:19px;}
	.st10{fill:#D8C261;stroke:#D8C261;stroke-width:2;stroke-miterlimit:4.7224;}
</style>
<sodipodi:namedview  bordercolor="#666666" borderopacity="1.0" id="namedview4384" inkscape:current-layer="layer1" inkscape:cx="206.55913" inkscape:cy="-485.17581" inkscape:document-units="pt" inkscape:pageopacity="0.0" inkscape:pageshadow="2" inkscape:window-height="645" inkscape:window-maximized="0" inkscape:window-width="674" inkscape:window-x="0" inkscape:window-y="0" inkscape:zoom="0.8" pagecolor="#ffffff" showgrid="false">
	</sodipodi:namedview>
<g id="layer1" transform="translate(-3.4409 -26.136)" inkscape:groupmode="layer" inkscape:label="Layer 1">
	<path id="path3783-4" inkscape:connector-curvature="0" sodipodi:nodetypes="cccc" class="st0" d="M348.4,321.2l-16.9-38.8
		c19-16.8,46-20.2,67.6-15.9L348.4,321.2z"/>
	<g id="g4156" transform="matrix(1.1806,0,0,1.1806,1029.9,-478.89)">
		
			<radialGradient id="path3254_00000026860041335444727400000011552145462378849666_" cx="-1545.0684" cy="37.9707" r="173.51" gradientTransform="matrix(1.1806 0 0 -0.2827 1017.1278 638.9182)" gradientUnits="userSpaceOnUse">
			<stop  offset="0" style="stop-color:#C6A61F"/>
			<stop  offset="0.1769" style="stop-color:#CBAE23"/>
			<stop  offset="0.397" style="stop-color:#D0C728"/>
			<stop  offset="0.6759" style="stop-color:#D7AE53"/>
			<stop  offset="0.8364" style="stop-color:#F0CB3E"/>
			<stop  offset="1" style="stop-color:#E4CA67"/>
		</radialGradient>
		
			<path id="path3254" inkscape:connector-curvature="0" sodipodi:nodetypes="cccsscc" style="fill:url(#path3254_00000026860041335444727400000011552145462378849666_);stroke:#C19B47;stroke-width:2.2414;stroke-miterlimit:4.7224;" d="
			M-856,625.4c114.6-2.7,216.4,18.8,321,35c11.5,8,21.2,15.9,0,20c-14.7,1.4-36.7,32.4-92,26c0,0-92-10.8-138-16
			c-49-5.5-74.4-27.9-92-45.5C-875.9,634.8-868.5,630.2-856,625.4z"/>
		
			<linearGradient id="path3256_00000137116693318496302460000014859338470982402230_" gradientUnits="userSpaceOnUse" x1="-1586.1661" y1="259.695" x2="-1262.6262" y2="259.695" gradientTransform="matrix(1.1806 0 0 -1.1806 1017.1278 856.312)">
			<stop  offset="0" style="stop-color:#C6A61F"/>
			<stop  offset="0.1769" style="stop-color:#CBAE23"/>
			<stop  offset="0.397" style="stop-color:#D0C728"/>
			<stop  offset="0.6759" style="stop-color:#D7AE53"/>
			<stop  offset="0.8364" style="stop-color:#F0CB3E"/>
			<stop  offset="1" style="stop-color:#E4CA67"/>
		</linearGradient>
		
			<path id="path3256" inkscape:connector-curvature="0" sodipodi:nodetypes="ccccc" style="fill:url(#path3256_00000137116693318496302460000014859338470982402230_);stroke:#EED517;stroke-width:2.2414;stroke-miterlimit:4.7224;" d="
			M-855,630.4c14.8-68.1,5.9-143.2,101-187.5c35.9-3.6,70-8.5,130.5,6c98.1,27.5,93.9,136.5,89,211.5
			C-643.4,655.6-751.3,648.3-855,630.4z"/>
		
			<linearGradient id="path3258_00000064344395449176639210000012929595246508876205_" gradientUnits="userSpaceOnUse" x1="-1419.0912" y1="325.0248" x2="-1384.5912" y2="290.0248" gradientTransform="matrix(1.1806 0 0 -1.1806 1017.1278 856.312)">
			<stop  offset="0" style="stop-color:#C6A61F"/>
			<stop  offset="0.1769" style="stop-color:#CBAE23"/>
			<stop  offset="0.397" style="stop-color:#D0C728"/>
			<stop  offset="0.6759" style="stop-color:#D7AE53"/>
			<stop  offset="0.8364" style="stop-color:#F0CB3E"/>
			<stop  offset="1" style="stop-color:#E4CA67"/>
		</linearGradient>
		
			<path id="path3258" inkscape:connector-curvature="0" sodipodi:nodetypes="ccccccccccc" style="fill:url(#path3258_00000064344395449176639210000012929595246508876205_);stroke:#D8C261;stroke-width:2.2414;stroke-miterlimit:4.7224;" d="
			M-668,521.4c-8.9,3.3-17.4,4-25-2c-17.4-23.5-26.4-87.1-60-77c7.2-18.4,19.1-13.1,30-12.5c17.9,5.7,22.5,26.7,32,42l5.5-39
			c12.9-1.9,18.4-0.1,26.5,0.5l-2,40c12.2-13.7,24.1-27.9,41.5-32.5c15.4-0.6,20.6,10.3,27,20C-620,440.4-648.9,499.9-668,521.4z"/>
		
			<radialGradient id="path3262_00000163064103249054815050000016678247996037451144_" cx="-1447.205" cy="180.4175" r="55.5577" gradientTransform="matrix(1.1806 0 0 -0.8766 1017.1278 768.2568)" gradientUnits="userSpaceOnUse">
			<stop  offset="0" style="stop-color:#F2CC30"/>
			<stop  offset="1" style="stop-color:#F2CC30"/>
		</radialGradient>
		
			<path id="path3262" inkscape:connector-curvature="0" sodipodi:nodetypes="ccccccccc" style="fill:url(#path3262_00000163064103249054815050000016678247996037451144_);" d="
			M-747,651.4l12-73.5l91,10l2.5,53.5l5.5-50c0.9-5.9-3.2-9.8-9-13l-88.5-9.5c-3,1.9-6,6.1-9,12L-747,651.4z"/>
		<path id="path3264" inkscape:connector-curvature="0" sodipodi:nodetypes="cccccc" class="st5" d="M-672.5,663.4
			c13.1-1,22.8-27.2,20-146c4-7.4,12.2-8.5,21.5-8c74.4,51.1,48.2,136,44,143.5c3.3,4.9,7.8,18.5-10.5,16
			C-622.5,671.8-647.5,666.7-672.5,663.4z"/>
		
			<linearGradient id="path3266_00000145774862662519477250000000351661235182485156_" gradientUnits="userSpaceOnUse" x1="-1577.8907" y1="242.1657" x2="-1466.6606" y2="242.1657" gradientTransform="matrix(1.1806 0 0 -1.1806 1017.1278 856.312)">
			<stop  offset="0" style="stop-color:#F2CC30"/>
			<stop  offset="1" style="stop-color:#F2CC30"/>
		</linearGradient>
		
			<path id="path3266" inkscape:connector-curvature="0" sodipodi:nodetypes="cccccccccc" style="fill:url(#path3266_00000145774862662519477250000000351661235182485156_);" d="
			M-737,542.9l2.5-21c-0.8-11.3-7.2-19.7-16-27c-5.7-4.2-11.3-5-17-2.5c-74.1,21.6-51.5,85.8-74.5,130c-3,6.2-5.6,12.5-2,20
			c3.8-0.6,6.7-1.6,13-1l4,5.5l74.5,3C-750.1,621.1-782,678-737,542.9z"/>
		<path id="path3268" inkscape:connector-curvature="0" sodipodi:nodetypes="ccccc" class="st5" d="M-655.5,481.4
			c-6.5,8-15.6,16-18.5,24c-2,6.3-2,12,0,17c8,0.8,11.9-10.7,17.5-17C-656.2,497.4-655.8,489.4-655.5,481.4z"/>
		<path id="path3270" inkscape:connector-curvature="0" sodipodi:nodetypes="ccccc" class="st5" d="M-630.5,477.4
			c9.8,3.2,16.1,11.7,23.5,18.5l13-9c-8.5-6.8-14.9-15.1-27-19.5L-630.5,477.4z"/>
		<path id="path3272" inkscape:connector-curvature="0" sodipodi:nodetypes="ccccc" class="st5" d="M-661.5,458.9c-9-5-18-6.7-27-5
			l2-8.5c8.5-1.4,17-0.4,25.5,3.5L-661.5,458.9z"/>
		<path id="path3274" inkscape:connector-curvature="0" sodipodi:nodetypes="ccccc" class="st5" d="M-722.5,462.4
			c-23.3,3.6-38.8,12.2-51.5,22.5c-1.2-3.4-2.7-6.8,0-11.5c13.4-13.1,44.8-14.8,44-21L-722.5,462.4z"/>
	</g>
</g>
<g>
	<text transform="matrix(0.9976 6.975647e-02 -6.975647e-02 0.9976 186.7694 221.8504)"><tspan x="0" y="0" class="st7 st8 st9">UNDER</tspan><tspan x="-33.3" y="22.8" class="st7 st8 st9">CONSTRUCTION</tspan></text>
</g>
<text transform="matrix(0.9976 6.975647e-02 -6.975647e-02 0.9976 184.0801 219.1611)"><tspan x="0" y="0" class="st10 st8 st9">UNDER</tspan><tspan x="-33.3" y="22.8" class="st10 st8 st9">CONSTRUCTION</tspan></text>
<text transform="matrix(0.9976 6.975647e-02 -6.975647e-02 0.9976 184.6687 219.7497)"><tspan x="0" y="0" class="st8 st9">UNDER</tspan><tspan x="-33.3" y="22.8" class="st8 st9">CONSTRUCTION</tspan></text>
</svg>
