<?xml version="1.0" encoding="utf-8"?>
<!-- Generator: Adobe Illustrator 28.0.0, SVG Export Plug-In . SVG Version: 6.00 Build 0)  -->
<svg version="1.1" id="Layer_1" xmlns="http://www.w3.org/2000/svg" xmlns:xlink="http://www.w3.org/1999/xlink" x="0px" y="0px"
	 viewBox="0 0 268.2 316.1" style="enable-background:new 0 0 268.2 316.1;" xml:space="preserve">
<g>
	<g>
		<path class="st0" d="M39.6,124.9c0,0-4.8-37.7,7.9-56.3S100.3-3.2,154.6,6.3c54.3,9.5,75.1,50.7,58.1,124
			c-18.6,64.5-20.2,67.3-32.3,90.2c-12,23-28.4,58-43.2,72.7c-16.1,17.2-18,16.1-34.7,16.7c-16.7,0.5-36.1,4.9-37.7-10.1
			c-1.6-15,6.3-27.1,6.3-27.1s-13.9-39.6-26.2-57.1c-25.2,1.6-33-11.5-34.8-25c-1.8-13.5,2.2-25.5,35-40.8c-9.5-0.7-8-5.8-4.4-8
			C35.2,134.5,36.4,127.6,39.6,124.9z"/>
		<path class="st1" d="M83.2,311.4c-9.7,0-17.8-2-18.8-11.5c-1.5-14,5.3-25.6,6.2-27.2c-1.1-3-14.3-39.9-26-56.7
			c-20.8,1.3-32.6-7.2-35-25.3c-1.9-14.2,3.1-26,33.9-40.6c-4.4-0.6-5.7-2.3-6-3.6c-0.4-1.6,0.6-3.5,2.5-4.8c-5.1-7-4.3-13.9-0.9-17
			c-0.2-1.5-1.1-10.3-0.8-21c0.4-10.8,2.2-25.7,8.8-35.4c11.4-16.8,24.6-31.3,38-41.8c22.7-17.8,46.1-24.8,69.5-20.7
			c23.6,4.1,41,14.3,51.6,30.3c14.1,21.3,16.4,53,6.9,94.2c-18.4,63.7-20.2,67.1-31.8,89.4l-0.5,0.9c-2,3.9-4.2,8.1-6.5,12.5
			c-10.9,21.4-24.5,48-36.8,60.3c-15.2,16.2-18.1,16.3-32,16.7c-1,0-2,0.1-3,0.1c-2.8,0.1-5.7,0.3-8.5,0.5
			C90.4,311.1,86.7,311.4,83.2,311.4z M44.9,215.2c0.1,0,0.3,0.1,0.3,0.2c12.2,17.3,26.2,56.9,26.3,57.2c0,0.1,0,0.3,0,0.4
			c-0.1,0.1-7.8,12.1-6.2,26.8c1.3,12.1,14.7,11.2,28.8,10.2c2.8-0.2,5.7-0.4,8.5-0.5c1.1,0,2.1-0.1,3-0.1
			c13.9-0.4,16.4-0.5,31.4-16.5c12.2-12.2,25.8-38.8,36.7-60.1c2.3-4.5,4.4-8.7,6.5-12.6l0.5-0.9c11.6-22.2,13.4-25.6,31.8-89.2
			c9.5-41,7.2-72.4-6.8-93.5c-10.5-15.8-27.6-25.9-51-30C133.1,2.9,90.7,6,47.9,68.8c-6.5,9.5-8.3,24.3-8.7,34.9
			c-0.4,11.6,0.8,21,0.8,21.1c0,0.1,0,0.3-0.1,0.4c-3.3,2.8-4,9.5,1.1,16.4c0.1,0.1,0.1,0.2,0.1,0.3c0,0.1-0.1,0.2-0.2,0.3
			c-1.8,1.1-2.9,2.8-2.5,4.1c0.4,1.7,2.8,2.8,6.7,3.1c0.2,0,0.3,0.2,0.4,0.3c0,0.2-0.1,0.4-0.2,0.4c-34.9,16.3-36.3,28.9-34.8,40.4
			C12.8,208.3,24.4,216.5,44.9,215.2C44.8,215.2,44.9,215.2,44.9,215.2z"/>
	</g>
	<path class="st2" d="M67.9,45.3c2.7-2.2,5.3-4.4,8-6.6c9.9-8,20.2-15.8,31.4-22C117.7,11,129,7.1,140.9,6.5
		c5.3-0.3,10.7-0.1,16.1,0.3c-0.8-0.2-1.5-0.3-2.3-0.5C113.1-1,80,28.3,61,50.9C63.4,49.2,65.6,47.2,67.9,45.3z"/>
	<g>
		<path class="st0" d="M178.6,13.5c8.4,7.2,5.6,14-3.1,10.3c-23-7.7-35.8-3.9-35.8-3.9s8.1,0.4,22.2,3.5
			c14.1,3.1,16.5,10.8,10.8,8.1c-5.7-2.8-11.6-5.5-23.1-8.1C125.3,19,113,25.6,113,25.6s8.6-2,23.9-1.5c23.5,0.6,46.8,17.6,31,11.8
			c-15.8-5.9-36.7-5.7-43.7-7c-7-1.3-26.5-2.6-37,6.8c24.9-7.9,39.6-1.6,29.7-1.6c-21.5,0.6-36,10.5-36,10.5s10.5-4.1,25.4-6.3
			c14.9-2.2,17.8,2.8,8.5,4c-9.4,1.3-10.5,13.6-13,25.4c-2.6,11.8-9.4,7-10.8-0.7c-1.5-7.7-1.3-12.5,3.1-22.8
			c-6.4,3.9-8.5,11.2-7.3,21.3c1.1,10.1,0,21.1-2.6,15.1c-2.6-6.1-5.5-7.9-3.9-16.2c1.7-8.3-3.4-17.5-12.9-16.5
			c-1.4,0.2-2.4,0-3.3-0.4c-7.3,8.3-12.8,15.9-16.3,21c-12.7,18.6-7.9,56.3-7.9,56.3c-3.2,2.8-4.4,9.6,1,16.9
			c-3.5,2.1-5,6.9,3.4,7.9c6.9-3.7,10.7-10.2,19.8-21.6c13-16.1,26.2-39.7,28.8-23.5c2.6,16.2,6.3,31.3,1.6,45.4
			c-4.7,14.1-3.7,17.2,3.1,9.1c5.8-16,16.2-6,21.4,2.9c5.2,8.9-6.8,16.2-13,13c-6.3-3.1-21.4-4.7-29.8,4.7
			c-8.4,9.4-33.4,31.3-53.8,18.3c-10.9-7-11.5-16.6-9.5-24.2c-3.1,5.6-3.4,11.1-2.6,16.8c1.8,13.5,9.7,26.6,34.8,25
			c12.3,17.5,26.2,57.1,26.2,57.1s-1.9,2.9-3.6,7.5c0.9,0,1.6,0.7,2,2.3c1.8,7.7,3.4,11,11.7,6.2c8.8-5.1,13.8-4,19.3,1.8
			c7.3,7.7,12.8,13.1,4.4,15.3c-6.9,1.8-29.4,5.6-38.9-1.9c4.6,10,21.7,6.5,36.6,6c16.7-0.5,18.6,0.5,34.7-16.7
			c14.8-14.8,31.2-49.8,43.2-72.7c12-23,13.7-25.7,32.3-90.2C226.9,69,214.7,30.2,178.6,13.5z"/>
	</g>
	<g>
		<path class="st0" d="M206.2,36.9c3.9,10.3,6.3,22.3-7.3,13.3c4.4,17.1,3.4,16.9-4,10.1c0,11,1.7,19.7-5,20
			c-6.7,0,6.7,10.9,4.7,27.8c-2.6,22.2-1,34.2-6.5,41.3c0,0,5.1,0,10.2-5.7c-2.6,13.3,4,25.9-8,48.3c-12,22.4-32.3,54.7-38.6,64.5
			c-6.3,9.9-6.8,13.5-10.4,24c-1.5,4.5-4.4,11.6-9.9,18.6c1.7-1.7,3.6-3.7,5.8-6c14.8-14.8,31.2-49.8,43.2-72.7
			c12-23,13.7-25.7,32.3-90.2C222.3,89,219.9,57.9,206.2,36.9z"/>
	</g>
	<path class="st0" d="M44.7,94.6c0,0,17.7-22.9,31.4-13.5C70,68.3,48,58.2,44.7,94.6z"/>
	<path class="st0" d="M115.7,99.3c0,0,4.2-14.4,18.4-16.2c14.2-1.8,20.6,7.1,22.9,11.9c-2.4-11.9-12.7-24.9-22.3-22.3
		C125,75.1,116.7,88.8,115.7,99.3z"/>
	<path class="st0" d="M38.8,122.3c0,0-2.1-11.9,5.6-20c7.7-8.1,18.1-9.4,25.2-7.3s8.1,11.2,4.4,18.5c-3.7,7.3-11.9,17.3-11.9,17.3
		S40,144.2,38.8,122.3z"/>
	<path class="st0" d="M115.8,106.8c0,0,1.9-21,22.3-21.8c7.9-0.1,19.7,4.6,20.9,23.1c0.5,12.2-9.3,20-23.1,20.9
		C121.9,129.9,114.4,120.6,115.8,106.8z"/>
	<g>
		<path class="st3" d="M39.8,121.9c0,0-2-11.3,5.3-19c7.3-7.7,17.1-8.9,23.9-6.9c6.7,2,7.7,10.6,4.2,17.5
			c-3.5,6.9-11.3,16.4-11.3,16.4S40.9,142.7,39.8,121.9z"/>
		<path class="st4" d="M49.6,134.2c-1.7,0-3.3-0.3-4.8-1.1c-3.3-1.7-5.1-5.5-5.4-11.2c-0.1-0.6-1.8-11.8,5.4-19.3
			c7.8-8.2,18-8.9,24.3-7c2.5,0.8,4.4,2.5,5.5,4.9c1.6,3.6,1.2,8.7-1.1,13.2c-3.4,6.9-11.3,16.4-11.4,16.5c0,0-0.1,0.1-0.1,0.1
			C61.7,130.5,55.5,134.2,49.6,134.2z M62.8,95.6c-5.5,0-12.1,2-17.5,7.6c-7.1,7.4-5.2,18.5-5.2,18.6c0,0,0,0,0,0
			c0.3,5.4,2,8.9,5,10.5c6,3.2,15.6-2.3,16.4-2.8c0.6-0.8,7.9-9.7,11.2-16.3c2.1-4.3,2.5-9,1-12.5c-1-2.2-2.7-3.8-5-4.5
			C67.1,95.9,65,95.6,62.8,95.6z"/>
	</g>
	<path class="st5" d="M42.5,120.7c0,0-1.7-9.5,4.4-15.9c6.1-6.4,14.4-7.5,20.1-5.8c5.7,1.7,6.4,8.9,3.5,14.7
		c-2.9,5.8-9.5,13.8-9.5,13.8S43.5,138.2,42.5,120.7z"/>
	<path class="st6" d="M83.6,96.7c-0.1,0.4-0.2,0.7-0.3,1.1c0,0,0,0,0.1,0C83.5,97.4,83.6,97,83.6,96.7
		C83.7,96.6,83.6,96.7,83.6,96.7z"/>
	<path class="st6" d="M83.2,94.6c-2.3,3.5-4.2,7.2-6.3,10.8c-2.1,3.5-4.2,7-6.4,10.5c-4.4,7-9.1,13.8-14,20.5
		c-1.4,1.9-2.8,3.7-4.2,5.5c-1.4,1.9-3,3.6-4.3,5.6c-0.6,0.9,0.4,1.1,0.9,0.5c1.5-1.6,2.7-3.3,4-5c1.2-1.6,2.5-3.2,3.7-4.8
		c2.5-3.3,4.9-6.7,7.2-10.1c4.8-6.9,9.2-14,13.4-21.3c2.3-4,4.7-8,6.4-12.3C83.8,94.2,83.4,94.4,83.2,94.6z"/>
	<g>
		<path class="st7" d="M199.7,99.1c0,0,2.5,23.7-3.2,43.8c4-2.7,6.4-8.6,6.4-8.6s-0.2,5.1-1.3,8.4c0,0,4-5.3,6.2-12.9
			c1.5,4,23.9-11.7,24.8-24.6c0.9-12.9-3.8-44.8-19-42.7C207.6,66.1,200.5,84.1,199.7,99.1z"/>
		<path class="st8" d="M196.5,143.3c-0.1,0-0.2,0-0.2-0.1c-0.1-0.1-0.2-0.3-0.2-0.4c5.6-19.7,3.2-43.4,3.2-43.6c0,0,0,0,0-0.1
			c0.8-14.8,7.8-33.1,14.1-36.9c0,0,0.1,0,0.2-0.1c3.2-0.5,6.2,0.5,8.8,2.9c8.8,8.2,11.3,30.6,10.7,40.2
			c-0.8,11.3-17.7,24.8-23.5,25.6c-0.7,0.1-1.2,0-1.5-0.2c-2.2,7.3-6,12.3-6.1,12.4c-0.1,0.2-0.4,0.2-0.5,0.1
			c-0.2-0.1-0.3-0.3-0.2-0.5c0.6-1.9,0.9-4.4,1.1-6.1c-1.1,2-3,5-5.6,6.8C196.7,143.3,196.6,143.3,196.5,143.3z M200.1,99.1
			c0.1,1,2.2,23.4-2.9,42.7c3.3-2.8,5.3-7.6,5.3-7.7c0.1-0.2,0.3-0.3,0.5-0.2c0.2,0,0.3,0.2,0.3,0.4c0,0.2-0.1,3.2-0.7,6.1
			c1.4-2.2,3.4-6.1,4.8-10.8c0-0.2,0.2-0.3,0.4-0.3c0.2,0,0.3,0.1,0.4,0.3c0.1,0.3,0.5,0.4,1.2,0.3c5.5-0.8,22.1-14.1,22.8-24.8
			c0.7-9.5-1.8-31.5-10.4-39.5c-2.4-2.2-5.1-3.1-8-2.7C207.8,66.6,200.9,84.8,200.1,99.1z"/>
	</g>
	<path class="st7" d="M200.1,118.8c0.2-0.8,0.4-1.6,0.5-2.3c2.1-9.2,1.9-18.6,3.8-27.8c0.1-0.4,0.5-1,1-1c2.1,0.2,3.3,2.6,3.9,4.3
		c0.4,0.9,0.7,1.9,0.9,2.9c0.2-4.9-0.9-9.9-1.1-14.8c0-0.4,0.4-1.6,1-1.2c2.4,1.8,4.6,4.4,7.5,5.3c-0.1-4.2-2.7-8.2-3.6-12.2
		c-0.8-3.2-0.6-6.5,0.2-9.6c-0.2,0-0.4,0-0.6,0c-6,3.6-13.1,21.6-13.9,36.6C199.7,99.1,200.6,107.6,200.1,118.8z"/>
	<path class="st9" d="M213.7,62.5c-0.2,0.1-0.4,0.3-0.7,0.5c1.3,0.6,2.5,1.3,3.7,2.3c3.1,2.7,4.9,6.6,6.5,10.3c1.6,3.6,3.1,8,2.3,12
		c-0.1,0.5-0.7,1-0.9,0.3c-0.5-1.2-1.1-2.5-1.7-3.7c1,6.2,2.6,12.3,2.3,18.7c0,0.4-0.5,1.5-1,1c-3.3-3-4.7-7.3-6.8-11.1
		c-0.4,2.7-0.1,5.6-0.1,8.3c0,3-0.2,6.3-1.8,8.9c-0.2,0.3-0.6,0.8-0.9,0.4c-1.3-1.3-2-2.8-2.6-4.5c-0.4,2.4-0.8,4.8-1.5,7.1
		c-0.9,3.1-2.1,6.4-4.2,8.8c-0.2,0.2-0.9,0.7-1,0.1c-0.1-1.6-0.3-3.1-0.4-4.7c0,0.2,0,0.4-0.1,0.5c-0.9,6-2.2,12.1-4.1,17.9
		c-0.6,1.9-1.3,3.7-2.1,5.5c2.9-2.9,4.6-7,4.6-7s-0.2,5.1-1.3,8.4c0,0,4-5.3,6.2-12.9c1.5,4,23.9-11.7,24.8-24.6
		C233.5,92.2,228.8,60.3,213.7,62.5z"/>
	<g>
		<path class="st7" d="M66.7,67.4c0,0-7.7-13.7-33.1,13.1c0,0,4.9-7.7,11.7-12.3c-4.2-0.1-13.4,7.8-13.4,7.8s6.3-8,15.9-10.9
			c-6.7-1-19.7,7.4-19.7,7.4s8-7.9,17.7-9.1c-12,0-23.7,5.9-23.7,5.9s4.5-6.7,22.1-9.3c-3.1-2.6-22.1,3.3-22.1,3.3s10.1-7.3,22-5.7
			c-6.5-2.4-22.9,1.2-22.9,1.2s13.5-5.9,23.2-3.4c-11.9-1.7-18.5-0.3-18.5-0.3s19.4-10.8,36-4.7C75.2,56,73,61.7,73,61.7
			s-0.2-2.6-3.6-4.9c3.6,6,3.5,7.3,3.5,7.3s-2.2-3.9-6.5-6.3c4.8,5.6,4.6,8,4.6,8s-4.6-6-8.8-7.7c6.7,5.4,7.2,9.3,7.2,9.3
			s-2.6-5.7-9.1-6.9C67.6,64.8,66.7,67.4,66.7,67.4z"/>
		<path class="st8" d="M33.7,81c-0.1,0-0.2,0-0.3-0.1c-0.2-0.1-0.2-0.4-0.1-0.5c0-0.1,4.4-6.7,10.4-11.4c-4.4,1.4-11.4,7.4-11.5,7.5
			c-0.2,0.1-0.4,0.1-0.6,0c-0.2-0.1-0.2-0.4,0-0.6c0.1-0.1,5.5-6.9,13.8-10.3c-6.8,0.7-17,7.3-17.1,7.3c-0.2,0.1-0.4,0.1-0.5-0.1
			c-0.1-0.2-0.1-0.4,0-0.5c0.1-0.1,5.7-5.6,13.2-8.1c-9.9,1.2-18.6,5.5-18.7,5.6c-0.2,0.1-0.4,0-0.5-0.1c-0.1-0.1-0.1-0.3,0-0.5
			c0.2-0.3,4.5-6.5,20.8-9.2c-4.3-0.6-15.7,2.4-20.3,3.8c-0.2,0.1-0.4,0-0.5-0.2c-0.1-0.2,0-0.4,0.1-0.5c0.1-0.1,6.4-4.6,14.9-5.7
			c-7,0.2-15.4,2-15.5,2c-0.2,0-0.4-0.1-0.5-0.3c-0.1-0.2,0-0.4,0.2-0.5c0.3-0.1,5.3-2.3,11.4-3.4c-4.2,0.1-6.5,0.5-6.5,0.6
			c-0.2,0-0.4-0.1-0.5-0.3c-0.1-0.2,0-0.4,0.2-0.5c0.2-0.1,19.8-10.8,36.3-4.8c13.6,5.7,11.5,11.5,11.5,11.7
			c-0.1,0.2-0.3,0.3-0.4,0.3c-0.2,0-0.3-0.2-0.3-0.4c0,0-0.1-1.5-1.7-3.1c2.4,4.3,2.4,5.4,2.4,5.5c0,0.2-0.1,0.3-0.3,0.4
			c-0.2,0-0.4,0-0.4-0.2c0,0-1.4-2.5-4.1-4.6c3.1,4.2,2.9,6.1,2.9,6.2c0,0.2-0.1,0.3-0.3,0.4c-0.2,0-0.3,0-0.4-0.1
			c0,0-2.1-2.8-4.7-5c3.5,3.7,3.8,6.2,3.8,6.3c0,0.2-0.1,0.4-0.3,0.4c-0.2,0.1-0.4,0-0.5-0.2c0,0-1.8-3.8-5.9-5.8
			c4.7,3.4,4.2,5.5,4.1,5.7c0,0.2-0.2,0.3-0.3,0.3c-0.2,0-0.3-0.1-0.4-0.2c-0.1-0.1-1.6-2.7-5.5-3.2c-4.6-0.6-13.1,1.8-26.9,16.4
			C33.9,80.9,33.8,81,33.7,81z M45.2,67.8C45.3,67.8,45.3,67.8,45.2,67.8c0.3,0,0.4,0.1,0.5,0.3s0,0.4-0.2,0.5
			c-3.1,2.2-5.9,5-7.9,7.4c11.6-11,19-12.9,23.3-12.3c2.3,0.3,3.9,1.3,4.9,2.2c-0.7-1.1-2.2-2.8-5.9-4.9c-0.2-0.1-0.2-0.3-0.2-0.5
			c0.1-0.2,0.3-0.3,0.5-0.3c2.9,0.5,5,1.9,6.5,3.3c-1-1.4-2.6-3.1-4.9-4.9c-0.2-0.1-0.2-0.3-0.1-0.5c0.1-0.2,0.3-0.3,0.5-0.2
			c3.1,1.2,6.3,4.5,7.9,6.4c-0.5-1.3-1.6-3.3-4.1-6.1c-0.1-0.2-0.1-0.4,0-0.5c0.1-0.2,0.3-0.2,0.5-0.1c2.2,1.2,3.8,2.8,4.9,4
			C71,60.4,70.2,58.9,69,57c-0.1-0.2-0.1-0.4,0.1-0.5c0.1-0.1,0.4-0.1,0.5,0c1.4,0.9,2.3,1.9,2.8,2.8c-0.8-2.1-3.2-5.2-10.8-8.3
			c-12.9-4.7-27.8,1-33.4,3.6c2.1-0.2,5.6-0.4,10.3,0c2,0,4,0.2,5.9,0.7c0.2,0.1,0.3,0.3,0.3,0.5c0,0.2-0.2,0.4-0.5,0.3
			c-2-0.3-3.9-0.5-5.6-0.6c-4.6,0.1-9.3,1.2-12.7,2.3c5.4-0.9,13.9-1.9,18.2-0.3c0.2,0.1,0.3,0.3,0.3,0.5c0,0.2-0.2,0.3-0.5,0.3
			C36,57,28.8,60,25,62c5.6-1.6,16.9-4.4,19.4-2.3c0.1,0.1,0.2,0.3,0.1,0.4c0,0.2-0.2,0.3-0.3,0.3c-12.1,1.7-17.9,5.5-20.3,7.6
			c3.9-1.7,12.8-5.1,21.9-5.1c0.2,0,0.4,0.2,0.4,0.4c0,0.2-0.1,0.4-0.4,0.4c-5.3,0.7-10.2,3.4-13.4,5.7c4.4-2.4,11.1-5.4,15.4-4.8
			c0.2,0,0.3,0.2,0.3,0.4c0,0.2-0.1,0.4-0.3,0.4c-4.5,1.4-8.3,3.9-11.1,6.2C39.7,69.8,43,67.8,45.2,67.8z"/>
	</g>
	<g>
		<path class="st7" d="M37.2,61.6c0.6-0.2,1.2-0.4,1.8-0.6c-8.9,2-13.4,5-15.4,6.9c0.9-0.5,1.8-1.1,2.7-1.5
			C29.7,64.5,33.4,63,37.2,61.6z"/>
		<path class="st8" d="M23.5,68.3c-0.1,0-0.3-0.1-0.3-0.2c-0.1-0.2-0.1-0.4,0.1-0.6c1.9-1.7,6.5-4.9,15.6-6.9c0.2,0,0.4,0.1,0.5,0.3
			c0.1,0.2-0.1,0.4-0.3,0.5c-0.2,0.1-0.5,0.2-0.7,0.2c-0.4,0.1-0.7,0.2-1.1,0.4c-3.5,1.3-7.3,2.8-10.9,4.7c-1.1,0.6-1.9,1-2.7,1.5
			C23.6,68.2,23.5,68.3,23.5,68.3z"/>
	</g>
	<path class="st9" d="M67.5,55.7c-2.7-0.5-5.4-0.3-7.9,0.6c-2.5,0.9-5,1.9-7.6,2.5c-2.7,0.6-5.4,1.1-8.1,1.7
		c-2.5,0.5-4.8,1.3-7.2,2.2c-4.1,1.5-8.7,3.3-12.6,5.8c3.8-1.7,12.7-5,21.7-5c-9.7,1.2-17.7,9.1-17.7,9.1s13-8.4,19.7-7.4
		c-9.6,2.9-15.9,10.9-15.9,10.9s9.2-7.9,13.4-7.8c-6.7,4.6-11.7,12.3-11.7,12.3c25.4-26.8,33.1-13.1,33.1-13.1s0.8-2.6-6.6-6.9
		c6.6,1.2,9.1,6.9,9.1,6.9s-0.5-3.9-7.2-9.3c4.3,1.6,8.8,7.7,8.8,7.7s0.3-2.5-4.6-8c4.3,2.4,6.5,6.3,6.5,6.3s0.1-1.3-3.5-7.3
		c3.5,2.4,3.6,4.9,3.6,4.9s0.7-2-1.4-4.7C70.3,56.4,68.9,56,67.5,55.7z"/>
	<g>
		<path class="st7" d="M114.6,63.9c0,0-6.5-15.9,28.1-32.1c-8.1,4.6-8.8,7.3-8.8,7.3s5.8-5.3,15.1-5.1c-9.6,3.2-12.3,5.9-12.3,5.9
			s11.3-4.6,23.1-2.8c-12.6,1.2-14.5,3.3-14.5,3.3s10.7-3.4,23.4-0.8c-8.7,0.5-11.5,2.6-11.5,2.6s12.5-0.7,21.1,2.4
			c-13.8,1.3-14.6,2.2-14.6,2.2s13.9,2.7,20,0.5c-8.1,3.8-14.7,3.3-14.7,3.3s12.2,2.1,18.6,0c-4.9,3.9-12,4.8-12,4.8
			s8.9,2.4,13.8,0.5c-8.1,4-15.5,9.8-24.8,4.9C155.1,55.9,138.8,34.9,114.6,63.9z"/>
		<path class="st8" d="M114.6,64.3C114.6,64.3,114.6,64.3,114.6,64.3c-0.2,0-0.3-0.1-0.4-0.3c-0.3-0.7-6.2-16.4,28.3-32.6
			c0.2-0.1,0.4,0,0.5,0.2c0.1,0.2,0,0.4-0.2,0.5c-3.7,2.1-5.8,3.8-7.1,5c2.5-1.6,7.1-3.7,13.1-3.5c0.2,0,0.4,0.2,0.4,0.4
			c0,0.2-0.1,0.4-0.3,0.5c-4.9,1.6-7.9,3.1-9.8,4.1c4.1-1.2,12.2-3.1,20.4-1.9c0.2,0,0.4,0.2,0.4,0.4c0,0.2-0.2,0.4-0.4,0.4
			c-3.9,0.4-6.7,0.8-8.8,1.3c4.4-0.6,10.8-1,17.8,0.4c0.2,0,0.3,0.2,0.3,0.4c0,0.2-0.2,0.4-0.4,0.4c-5,0.3-8,1.1-9.6,1.7
			c3.9-0.1,12.7,0.1,19.3,2.4c0.2,0.1,0.3,0.2,0.3,0.4c0,0.2-0.2,0.3-0.4,0.4c-7.6,0.7-11.2,1.3-12.9,1.7c3.8,0.6,13.4,1.9,18.1,0.2
			c0.2-0.1,0.4,0,0.5,0.2c0.1,0.2,0,0.4-0.2,0.5c-4.1,1.9-7.7,2.7-10.4,3.1c4.1,0.4,10.2,0.7,14-0.6c0.2-0.1,0.4,0,0.5,0.2
			c0.1,0.2,0,0.4-0.1,0.5c-3.4,2.7-7.7,4-10.2,4.5c2.9,0.6,8.3,1.3,11.6,0.1c0.2-0.1,0.4,0,0.5,0.2c0.1,0.2,0,0.4-0.2,0.5
			c-1.3,0.6-2.5,1.3-3.7,1.9c-6.9,3.7-13.4,7.2-21.4,3c-1.6-0.8-3.3-2.1-5.3-3.5c-9.6-6.9-24-17.3-44,6.6
			C114.8,64.2,114.7,64.3,114.6,64.3z M136.7,35.3c-23.4,12.8-22.5,24.8-21.9,27.7c20.2-23.6,34.8-13.1,44.6-6.1
			c2,1.4,3.7,2.6,5.2,3.4c7.7,4,14,0.6,20.7-3c0.3-0.2,0.7-0.4,1-0.5c-4.8,0.5-10.6-1.1-10.9-1.1c-0.2,0-0.3-0.2-0.3-0.4
			c0-0.2,0.2-0.4,0.4-0.4c0.1,0,5.4-0.8,10-3.5c-6.6,1.2-16.1-0.5-16.6-0.5c-0.2,0-0.4-0.2-0.3-0.5c0-0.2,0.2-0.4,0.4-0.4
			c0.1,0,4.5,0.3,10.5-1.7c-6.6,0.5-15.4-1.2-15.9-1.3c-0.1,0-0.3-0.1-0.3-0.3c0-0.1,0-0.3,0.1-0.4c0.2-0.2,1.8-1.1,12.8-2.2
			c-8.2-2.3-18.9-1.7-19-1.7c-0.2,0-0.3-0.1-0.4-0.3c-0.1-0.2,0-0.4,0.1-0.5c0.1-0.1,2.3-1.7,8.5-2.4c-11-1.4-19.9,1.3-20,1.3
			c-0.2,0.1-0.4,0-0.5-0.2c-0.1-0.2-0.1-0.4,0-0.5c0.1-0.1,1.7-1.8,10.7-3c-10-0.4-18.8,3.1-18.9,3.2c-0.2,0.1-0.4,0-0.5-0.2
			c-0.1-0.2-0.1-0.4,0.1-0.5c0.1-0.1,2.4-2.3,9.9-5.1c-7.4,0.7-12,4.8-12.1,4.9c-0.1,0.1-0.3,0.1-0.5,0c-0.2-0.1-0.2-0.3-0.2-0.5
			C133.5,38.9,133.9,37.6,136.7,35.3z"/>
	</g>
	<path class="st9" d="M182.7,56.4c-0.1,0-0.2,0.1-0.3,0.1c-2.2,0.7-4.6,1.2-6.9,1.3c-5.2,0.2-9.5-2.3-13.9-4.7
		c-4.1-2.3-8.2-4.5-12.6-6.2c-4.5-1.7-9.1-2.6-13.9-2.6c-2.3,0-4.6,0.2-6.8,1.1c-1.7,0.7-3.2,1.7-4.6,2.9c-1.5,1.3-3,2.7-4.5,4.1
		c-0.9,0.7-1.9,1.8-3.1,2c-0.3,0-0.5,0-0.6,0c-2.4,5.7-0.9,9.5-0.9,9.5c24.2-28.9,40.5-8,49.7-3.2c9.3,4.8,16.7-0.9,24.8-4.9
		C187.4,56.5,184.9,56.6,182.7,56.4z"/>
	<g>
		<path class="st1" d="M90.7,48.5c-3.6,5.9-3.3,12.8-2.5,19.5c0.9,7,1.9,14.2-1.1,20.9c-0.3,0.7,0.6,0.4,0.8,0
			c3.5-6,2.7-13.3,1.8-19.9c-0.9-6.7-2-14.2,1.3-20.4C91.1,48.2,90.8,48.4,90.7,48.5z"/>
		<path class="st1" d="M110.4,46.8c-5.2,8.3-7.9,18.3-7.2,28c0,0.6,0.9-0.2,0.9-0.6c-0.1-9.6,2-19,6.7-27.4
			C110.9,46.4,110.5,46.6,110.4,46.8z"/>
		<path class="st1" d="M131.4,36c-13.4-1.6-27.7-0.8-40.5,3.7c-3.4,1.2-7.1,2.6-10.1,4.7c-0.1,0-0.3,0.4-0.1,0.3
			c1.5-0.6,2.9-1.4,4.4-2c1.5-0.7,3-1.3,4.6-1.8c3.2-1.1,6.4-2,9.7-2.7c6.5-1.3,13.2-1.9,19.8-1.8c3.9,0,7.8,0.2,11.7,0.5
			C131.2,36.8,131.8,36,131.4,36z"/>
		<path class="st1" d="M130.8,32.5c-1.9-0.6-3.9-0.8-5.9-1.1c-2-0.3-4-0.6-6-0.8c-3.8-0.4-7.6-0.6-11.5-0.5
			c-7.1,0.2-14.1,1.7-20.3,5.2c-0.1,0.1-0.3,0.5-0.1,0.4c6.2-3.2,13.2-4.5,20.1-4.6c3.8-0.1,7.6,0.2,11.4,0.7
			c1.9,0.2,3.7,0.5,5.6,0.7c2,0.3,4.1,0.7,6.1,0.7C130.6,33.2,131.2,32.6,130.8,32.5z"/>
		<path class="st1" d="M186.4,43.2c-4.4-5-10.3-8.5-16.2-11.4c-11.6-5.7-24.4-8.8-37.3-8.9c-7.3-0.1-14.5,0.9-21.5,2.8
			c-0.1,0-0.3,0.4-0.2,0.3c12.3-3.1,25.5-3.4,37.9-0.7c6.3,1.4,12.5,3.4,18.3,6.3c5.8,2.8,11.6,6.2,16.2,10.8
			c2.5,2.6,4.7,5.5,6.3,8.7c1.7,3.2,2.8,6.6,4,9.9c0.1,0.4,0.8-0.4,0.8-0.7C193.6,54.1,190.6,47.9,186.4,43.2z"/>
		<path class="st1" d="M185.6,85.6c-0.9-1.3-1.9-2.5-3-3.7c-1.1-1.3-2.2-2.6-2.4-4.4c0-0.1-0.4,0.2-0.4,0.3c0.2,2.5,2.1,4.3,3.6,6.2
			c1.9,2.3,3.4,5,4.2,7.9c0.8,2.8,1.1,5.8,0.8,8.8c-0.4,3.5-1.5,7-2.3,10.4c-1,3.9-2,7.8-2.8,11.7c-0.1,0.4,0.5,0,0.5-0.2
			c1-3.4,1.8-6.9,2.7-10.4c0.8-3.4,1.8-6.8,2.4-10.3C190,96.2,188.8,90.4,185.6,85.6z"/>
		<path class="st1" d="M179.7,91.1c-0.1-0.1-0.4,0.2-0.3,0.4c5,7.8,2.7,17.2,0.3,25.5c-0.1,0.5,0.6,0,0.7-0.3
			C183,108.5,185,98.7,179.7,91.1z"/>
		<path class="st1" d="M198.9,50.2c-1.1-3.8-3.4-7.2-5.9-10.3c-2.6-3.1-5.6-5.9-9-8.2c-7.3-5.1-15.9-8.2-24.6-10.1
			c-5.4-1.2-10.9-1.9-16.3-2.3c-0.1,0-0.4,0.3-0.2,0.4c9.3,1.4,18.6,2.7,27.4,6.1c7.8,3,15,7.5,20.6,13.7c3.1,3.4,5.2,7.3,7.2,11.4
			C198.3,51.3,199,50.5,198.9,50.2z"/>
		<path class="st1" d="M172.4,182.4c-0.3-1.8-0.8-3.6-1.8-5.1c-1-1.5-2.5-2.5-4.2-3.2c-4-1.8-8.3-2.8-12.4-4.1
			c-4-1.2-8-2.6-11.8-4.4c-4-2-7.7-4.5-10.9-7.6c-0.1-0.1-0.3,0.2-0.2,0.3c4.4,6.2,11.9,9.4,18.8,11.8c4.2,1.4,8.4,2.6,12.6,4.1
			c1.9,0.6,3.8,1.3,5.4,2.5c1.6,1.2,2.4,2.9,3,4.7c1.4,4.8,0.9,9.8,0.2,14.7c-0.1,0.8,0.9,0,1-0.4
			C173.3,191.3,173.2,186.6,172.4,182.4z"/>
		<path class="st1" d="M188.9,166c-1.8-5.4-5.3-10.3-10.1-13.5c-5.5-3.7-12.3-5.3-18.7-6.5c-8-1.5-16-1.7-24-0.7
			c-0.2,0-0.5,0.5-0.2,0.4c6.8-0.5,13.7-0.2,20.5,0.9c6.5,1,13.3,2.5,19.1,5.6c10.6,5.6,15.2,17.9,13.5,29.4
			c-1,7.1-4.2,13.8-8.2,19.7c-0.6,0.9,0.5,0.9,1,0.3C188.8,191.3,193,178.2,188.9,166z"/>
		<path class="st1" d="M181.7,189.1c-5.2,10.4-10.4,20.9-16.4,30.9c-2.9,4.9-6.2,9.6-9.3,14.4c-3,4.7-5.7,9.5-8,14.5
			c-2.6,5.6-4.9,11.4-6.4,17.4c-0.2,0.8,0.9,0,1.1-0.4c3.5-10.8,8-21,14-30.6c3-4.8,6.3-9.5,9.2-14.4c2.9-4.8,5.5-9.7,8-14.6
			c2.9-5.7,5.6-11.5,8.3-17.2C182.3,188.7,181.8,188.9,181.7,189.1z"/>
		<path class="st1" d="M160,244.3c-12.2,12.4-16,30.3-23.8,45.4c-2.3,4.4-5.1,8.4-8,12.4c-0.3,0.4,0,0.7,0.4,0.3
			c3-2.9,5.3-6.6,7.3-10.2c2.1-3.8,3.9-7.7,5.5-11.6c3.4-8,6.2-16.3,10.4-24c2.3-4.4,5.1-8.5,8.5-12.1
			C160.5,244.2,160.3,244,160,244.3z"/>
		<path class="st1" d="M155.7,83c-2.7-5.2-6.1-11-11.9-12.9c-5.2-1.7-11-0.6-15.6,2.2c-4.7,3-8.1,7.6-10.4,12.6
			c-3,6.8-4.1,14.4-4.6,21.8c0,0.1,0.2-0.1,0.2-0.2c1.8-11.6,3.1-25.4,13.7-32.7c4.3-2.9,9.8-4.1,14.8-2.6c5.8,1.7,9,6.8,11.7,11.8
			c3.3,6.1,5.1,12.6,6.5,19.4c0.1,0.6,1.2-0.4,1.2-0.9C160.9,95.1,158.6,88.7,155.7,83z"/>
		<path class="st1" d="M157.1,124.5c-3.1,5.9-8.3,11-14.5,13.8c-5.9,2.7-12.5,2-18.2-1.1c-3.1-1.7-5.8-3.8-8.1-6.5
			c-0.1-0.1-0.5,0.3-0.4,0.4c4.1,5.1,10,9.1,16.6,9.8c7,0.7,13.4-2.9,18.4-7.5c2.8-2.6,5.2-5.6,6.8-9.1
			C158,123.7,157.2,124.1,157.1,124.5z"/>
		<path class="st1" d="M57.4,132.7c-3.4,1.9-7.5,3.3-11.4,2.1c-3.1-1-6-3.7-6.2-7.1c0-0.2-0.4,0.1-0.4,0.3c0,3.6,2.6,6.7,6,7.9
			c4.1,1.4,8.7,0,12-2.4C57.7,133.2,58,132.3,57.4,132.7z"/>
		<path class="st1" d="M77,87.3c-1.6-2.8-4.2-4.6-7.5-4.6c-3.4,0-6.8,1.6-9.7,3.3c-3,1.7-5.7,3.9-8.2,6.2c-2.8,2.6-5.3,5.5-7.5,8.6
			c-0.2,0.2,0.1,0.3,0.2,0.1c4.2-4.8,8.5-9.6,13.9-13c5.1-3.2,13-6.6,17.2-0.2c2.1,3.2,2,7.1,2.4,10.8c0.1,0.7,1-0.3,1-0.6
			C79,94.3,78.8,90.4,77,87.3z"/>
		<path class="st1" d="M118.8,153.7c-3.6-4-8.8-7.1-14.3-5.6c-5.1,1.4-7.5,6.5-8.2,11.4c-0.1,0.8,0.9,0,1-0.4c0.6-2,1.2-4.2,2.3-6
			c1.2-2,3-3.2,5.3-3.6c4.8-0.8,9.2,2.1,12.4,5.4c6.2,6.6,8.6,17.7,2.1,25c-1.7,1.9-3.8,3.2-6.3,3c-2.5-0.3-4.7-1.5-7.1-2.1
			c-4.3-1.2-8.9-0.4-13,1.2c-9.2,3.8-15.2,11.8-22.6,18c-4.2,3.5-8.8,6.5-13.7,9c-5,2.6-10.3,4.4-15.4,6.6c-0.1,0.1-0.6,0.7-0.2,0.6
			c5-1,9.9-3.1,14.4-5.3c4.6-2.2,9.1-4.9,13.2-8.1c8.3-6.4,14.8-16,25-19.8c2.4-0.9,4.9-1.4,7.4-1.4c2.7,0,5.1,0.9,7.6,1.8
			c2.3,0.8,4.8,1.4,7.2,0.4c2.1-0.9,3.9-2.6,5.2-4.4C127,171.5,125.1,160.8,118.8,153.7z"/>
		<path class="st1" d="M73.4,277.3c-0.6-1.8-1.2-3.6-1.9-5.4c-0.1-0.2-0.6,0.2-0.5,0.5c0.6,1.8,1.2,3.6,1.7,5.5
			c0.5,1.8,0.8,3.7,1.5,5.5c0.1,0.3,0.6-0.3,0.6-0.5C74.6,281,74,279.1,73.4,277.3z"/>
		<path class="st1" d="M130.7,281.1c-2.1,3.9-4.9,7.5-8.9,9.5c-4.2,2.1-9.3,2.3-13.4,0c-3.7-2.1-6.6-5.4-10.3-7.4
			c-3.4-1.8-7.3-2.4-11-1.9c-4.2,0.5-8.1,2.4-11.1,5.4c-0.2,0.3-0.1,0.6,0.2,0.3c6.4-5.8,16-6.1,23-1.2c3.5,2.5,6.5,5.8,10.6,7.2
			c4.1,1.4,8.8,0.7,12.6-1.4c4.2-2.3,7.5-6.2,9.3-10.6C132,280.2,130.9,280.7,130.7,281.1z"/>
	</g>
	<path class="st10" d="M52.1,214.5c0,0,13.7,13.4,53.8,4c40.1-9.4,61.9-42,61.9-42s-8.1,21.4-19.1,49.7c-11,28.4-21.7,57.5-28.6,53
		c-7-4.6-19.3-12-35.3-6.2C78.9,251.9,52.1,214.5,52.1,214.5z"/>
	<path class="st11" d="M105.9,218.5c-40.1,9.4-53.8-4-53.8-4s11.9,16.6,21.5,34c2.5,0.3,5.1,0.4,7.5,0.3c2.4,0,4.9-0.1,7.3-0.4
		c3.6-0.4,7.2-1.5,10.7-2.6c6.8-2.1,13.5-4.9,20.5-6.1c3.6-0.6,7.8-0.9,11.2,0.3c1.5,0.5,2.8,1.5,3.2,3.1c0.4,1.7-0.2,3.9-1.3,5.3
		c-1.2,1.4-3.1,2.1-4.9,2.6c-2.4,0.6-4.8,0.8-7.3,0.9c-2.4,0.1-4.9,0.2-7.3,0.3c-2.3,0.1-4.5,0.6-6.7,1.3c-3.4,1.1-6.6,2.7-9.6,4.7
		c-3,2-5.5,4.6-8.4,6.9c-1.6,1.3-3.4,2.5-5.2,3.6c0.6,1.5,1,3,1.4,4.4c16.1-5.9,28.4,1.6,35.3,6.2c7,4.6,17.7-24.6,28.6-53
		c11-28.4,19.1-49.7,19.1-49.7S146,209.1,105.9,218.5z"/>
	<g>
		<path class="st12" d="M113.9,255.9c-11.2,2.2-18.3,10.1-21.9,15.3c12.5-1.8,22.2,4.1,28.1,8c3.7,2.4,8.4-4.6,13.7-16
			C131.8,259.6,126.5,253.4,113.9,255.9z"/>
		<path class="st13" d="M126,256.5c0,3-0.7,6-2.6,8.4c-2.3,2.9-5.9,4.1-9.5,4.5c-3.6,0.4-7.8,0.3-10.8-2c-1.7-1.3-2.7-3.2-2.7-5.1
			c-3.8,3-6.6,6.4-8.5,9.1c12.5-1.8,22.2,4.1,28.1,8c3.7,2.4,8.4-4.6,13.7-16C132.6,261.1,130.3,258.1,126,256.5z"/>
		<g>
			<path class="st5" d="M105.9,218.5c-18,4.2-30.7,3.8-39.2,2.1c0.8,3.6,2.4,11.2,4.4,17.1c2.7,8,11,8,33.7,3.7
				c19.7-3.7,36.5-16.4,50.2-31.7c7.6-19.8,12.7-33.3,12.7-33.3S146,209.1,105.9,218.5z"/>
			<path class="st14" d="M83.1,244.7c-7.2,0-10.8-2-12.4-6.9c-1.9-5.8-3.6-13.3-4.4-17.2c0-0.1,0-0.3,0.1-0.4
				c0.1-0.1,0.2-0.1,0.4-0.1c10.7,2.1,23.8,1.4,39-2.1c39.5-9.2,61.5-41.5,61.7-41.8c0.1-0.2,0.3-0.2,0.5-0.1
				c0.2,0.1,0.3,0.3,0.2,0.5c-0.1,0.1-5.2,13.7-12.7,33.3c0,0,0,0.1-0.1,0.1c-16,17.8-33,28.5-50.5,31.8
				C95.3,243.7,88.3,244.7,83.1,244.7z M67.2,221.1c0.8,4,2.4,11,4.3,16.5c2.6,7.8,11,7.7,33.3,3.5c17.3-3.3,34.1-13.9,50-31.5
				c5.5-14.3,9.8-25.4,11.6-30.4c-6,7.8-27,31.9-60.4,39.7l0,0C91,222.4,77.9,223.1,67.2,221.1z"/>
		</g>
		<path class="st15" d="M105.9,218.5c-18,4.2-30.7,3.8-39.2,2.1c0.2,1.1,0.5,2.5,0.9,4c0,0,0,0,0,0c0.9-0.6,1.9-0.8,2.9-0.1
			c1,0.7,1.7,2,2.2,3.1c0.8,1.7,1.5,3.5,2.1,5.4c1.1,3.5,1.9,7.1,2.6,10.7c2,0.5,4.6,0.7,7.8,0.6c-0.9-4.3-2.2-8.7-1-12.9
			c1.2-4.7,6-7.2,10.5-8.1c3.4-0.7,6.6,0.2,8.5,3.2c2,3.1,2.6,7,2.9,10.6c0.1,1.4,0.2,2.8,0.2,4.1c2.2-0.5,4.3-1.1,6.4-1.7
			c-2.2-4.4-3.7-9.3-2.3-14.2c0.7-2.7,2.2-5.2,4.5-6.9c2-1.5,4.2-2.7,6.6-3.4c3.5-1,6.3,0.4,7.8,3.6c1.7,3.6,2,7.7,2.3,11.6
			c0,0.1,0,0.1,0,0.2c2.1-1.4,4.2-2.8,6.2-4.4c-0.3-2.6-1-5.1-1.5-7.6c-0.5-3.2-0.2-6.2,1.7-8.9c1.3-1.9,3.3-3.3,5.1-4.7
			c1.4-1.1,3.1-2.5,4.9-3c2.8-0.8,4.4,1.6,5,4c0.4,1.8,0.5,3.8,0.4,5.8c0.5-0.6,1.1-1.2,1.6-1.8c7.6-19.8,12.7-33.3,12.7-33.3
			S146,209.1,105.9,218.5z"/>
	</g>
	<g>
		<path class="st14" d="M107.7,228c-0.2-1.5-0.3-3-0.4-4.6c0-0.8-0.1-1.6-0.1-2.4c0-0.7,0.1-1.4-0.1-2c-0.1-0.2-0.3,0.2-0.4,0.2
			c-0.4,1.5-0.3,3.2-0.3,4.8c0,1.7,0.1,3.3,0.3,4.9c0.4,3.2,1,6.3,2.1,9.3c0.1,0.3,0.8-0.3,0.7-0.6
			C108.9,234.5,108.1,231.3,107.7,228z"/>
		<path class="st14" d="M133.4,208.9c0-0.2-0.4,0.1-0.4,0.3c-0.4,6-0.3,12.2,0.6,18.2c0,0.3,0.7-0.3,0.7-0.5
			C134,220.9,133.5,214.9,133.4,208.9z"/>
		<path class="st14" d="M77.5,233.1c-1-3.4-2-6.9-3.2-10.2c-0.1-0.2-0.4,0.2-0.4,0.3c0.8,3.6,1.8,7.1,2.8,10.6
			c1,3.5,1.9,6.9,3.1,10.3c0.1,0.3,0.7-0.3,0.7-0.6C79.6,240,78.5,236.5,77.5,233.1z"/>
	</g>
	<g>
		<path class="st16" d="M173.8,102.5c0,0,40.4,19.3,40.4,19c0-0.4,5-4.4,5-4.4l-44.6-22.9L173.8,102.5z"/>
		<path class="st17" d="M214.3,121.9c-0.5,0-4.1-1.5-40.7-19c-0.2-0.1-0.2-0.2-0.2-0.4l0.8-8.4c0-0.1,0.1-0.3,0.2-0.3
			c0.1-0.1,0.3-0.1,0.4,0l44.6,22.9c0.1,0.1,0.2,0.2,0.2,0.3c0,0.1,0,0.3-0.2,0.4c-2.2,1.8-4.6,3.8-4.9,4.3
			C214.6,121.7,214.5,121.8,214.3,121.9C214.4,121.9,214.4,121.9,214.3,121.9z M174.3,102.3c10.6,5.1,36.9,17.6,39.8,18.8
			c0.4-0.5,1.5-1.5,4.5-3.9L175,94.7L174.3,102.3z"/>
	</g>
	<path class="st18" d="M202.3,112c-7.5-3.2-14.6-7.3-22.4-9.9c-0.4-0.1-0.5-0.9-0.5-1.2c0.2-1.3,0.5-2.6,0.8-3.9l-5.6-2.9l-0.8,8.4
		c0,0,40.4,19.3,40.4,19c0-0.2,1.6-1.6,3-2.8C212.2,116.5,207.3,114.2,202.3,112z"/>
	<g>
		<polygon class="st16" points="6.6,111.2 39.3,119.6 38.8,113.3 6.8,101.8 		"/>
		<path class="st17" d="M39.3,120c0,0-0.1,0-0.1,0l-32.7-8.4c-0.2,0-0.3-0.2-0.3-0.4l0.2-9.4c0-0.1,0.1-0.3,0.2-0.3
			c0.1-0.1,0.2-0.1,0.4,0l32,11.5c0.2,0.1,0.3,0.2,0.3,0.4l0.5,6.2c0,0.1,0,0.3-0.1,0.3C39.5,119.9,39.4,120,39.3,120z M7,110.8
			l31.8,8.2l-0.4-5.4L7.2,102.4L7,110.8z"/>
	</g>
	<path class="st18" d="M32.4,115.1c-3.6-1.3-7.2-2.4-10.8-3.7c-1.7-0.6-3.5-1.2-5.2-1.8c-1.8-0.5-3.6-0.8-5.5-1.1
		c-0.2,0-0.3-0.2-0.3-0.4c0-1.7,0-3.4,0.1-5l-3.9-1.4l-0.2,9.4l32.7,8.4l-0.2-2.5C36.9,116.5,34.6,115.9,32.4,115.1z"/>
	<g>
		<path class="st3" d="M117.2,106.8c0,0,1.7-19.6,20.8-20.3c7.4-0.1,18.3,4.3,19.5,21.6c0.5,11.4-8.7,18.7-21.6,19.5
			C123,128.4,115.9,119.7,117.2,106.8z"/>
		<path class="st4" d="M134.3,128c-5.3,0-9.7-1.7-12.8-4.9c-3.6-3.8-5.3-9.6-4.6-16.4c0-0.3,2-20,21.2-20.7c0.1,0,0.2,0,0.3,0
			c8.8,0,18.5,5.8,19.6,22c0.5,11.2-8.2,19.1-22,19.9C135.4,128,134.8,128,134.3,128z M138.2,86.9c-0.1,0-0.1,0-0.2,0
			c-18.4,0.7-20.3,19.1-20.4,19.9c0,0,0,0,0,0c-0.6,6.5,0.9,12.1,4.4,15.7c3.2,3.4,8,4.9,13.9,4.6c13.3-0.8,21.6-8.3,21.2-19.1
			C155.7,88.1,141.6,86.9,138.2,86.9z M117.2,106.8L117.2,106.8L117.2,106.8z"/>
	</g>
	<path class="st5" d="M120.5,106.8c0,0,1.4-16.4,17.3-16.9c6.2-0.1,15.3,3.6,16.3,18c0.4,9.5-7.2,15.6-18,16.3
		S119.5,117.6,120.5,106.8z"/>
	<g>
		<g>
			<g>
				<path class="st19" d="M153.4,108.4c-0.6,4.8-4.9,8.3-9.8,7.7c-4.8-0.6-8.3-4.9-7.7-9.8c0.6-4.8,4.9-8.3,9.8-7.7
					C150.5,99.2,154,103.5,153.4,108.4z"/>
				<path class="st20" d="M152.2,108.2c-0.5,4.2-4.3,7.1-8.4,6.7c-4.2-0.5-7.1-4.3-6.7-8.4c0.5-4.2,4.3-7.1,8.4-6.7
					C149.8,100.3,152.7,104,152.2,108.2z"/>
				<path class="st21" d="M149.1,107.8c-0.3,2.5-2.5,4.2-5,3.9c-2.5-0.3-4.2-2.5-3.9-5c0.3-2.5,2.5-4.2,5-3.9
					C147.7,103.2,149.4,105.4,149.1,107.8z"/>
			</g>
			<path class="st5" d="M143.1,103.8c-0.1,0.9-0.9,1.5-1.7,1.4c-0.9-0.1-1.5-0.9-1.4-1.7c0.1-0.9,0.9-1.5,1.7-1.4
				C142.6,102.2,143.2,102.9,143.1,103.8z"/>
			<path class="st5" d="M141,107c-0.1,0.5-0.5,0.9-1,0.8c-0.5-0.1-0.9-0.5-0.8-1s0.5-0.9,1-0.8C140.7,106,141,106.5,141,107z"/>
			<path class="st22" d="M151.1,107.3c0-0.3-1-0.1-1.1,0.1c-0.5,1.9-1.3,3.7-3.1,4.5c-0.9,0.4-1.8,0.6-2.8,0.6
				c-0.9-0.1-1.8-0.3-2.6-0.8c-0.9-0.5-1.6-1.3-2.1-2.2c-0.1-0.2-0.3-0.1-0.4,0c-0.7,0.8,0.2,2.2,0.7,2.8c2.8,3.2,8.5,2.4,10.5-0.7
				C150.9,110.6,151.4,108.9,151.1,107.3z"/>
		</g>
	</g>
	<g>
		<path class="st23" d="M246.1,106.4c-6.5-1.1-13,0.3-18.7,3c0.5,0.1,0.9,0.2,1.3,0.3c1.5,0.6,2.3,2.3,1.7,3.8
			c-0.6,1.4-2.1,2.3-3.2,3.1c-1.5,1.1-2.8,2.3-4.1,3.6c-3.1,3-5.9,6.2-8.2,9.8c-2.4,3.8-4.1,7.8-5.2,12.1
			c-1.3,5.1-2.6,10.1-3.8,15.3c-0.6,2.6-1.2,5.2-1.8,7.8c-0.3,1.5-0.6,3-1.3,4.4c-0.6,1.3-1.5,2.3-3,2.1c-1.6-0.2-2.7-1.2-3.5-2.5
			c0,1.2,0.1,2.3,0.2,3.5c0.4,3.8,1.2,7.5,2.9,11.1c1.5,3.3,3.9,6.7,7.2,8.7c7.7,4.7,16.7-1.3,21.4-6.4c3.4-3.7,6-8.2,7.4-13.1
			c0.7-2.5,1.2-5.1,2.3-7.5c1-2.1,2.3-4.1,3.9-5.8c3.1-3.4,7-6,10.5-9c3.1-2.7,5.8-5.7,7.9-9.2c3.5-5.8,5.5-13.1,3.5-20.1
			C261.2,113.8,254.2,107.8,246.1,106.4z"/>
		<path class="st2" d="M254,146.9c-3,3.1-6.5,5.6-9.8,8.4c-3.2,2.7-6.1,5.7-7.9,9.4c-1,2.1-1.6,4.4-2.2,6.7
			c-0.7,2.5-1.5,4.9-2.8,7.2c-2.2,4.1-5.2,7.9-9,10.6c-3,2.2-6.9,4.1-11,3.6c-4-0.5-6.9-3.6-8.9-6.8c-2-3.1-3.1-6.6-3.8-10.1
			c-1.3-7.1-0.8-14.4,0.9-21.2c1.2-4.8,2.6-9.5,4.2-14.2c0.2-0.6,0.4-1.3,0.7-1.9c-0.2,1.3-0.4,2.6-0.6,3.9c0,0.2,0.4,0.2,0.4,0
			c0.8-2.8,1.3-5.6,2-8.4c0.2-0.4,0.3-0.8,0.5-1.1c1.1-2.2,2.5-4.4,3.8-6.5c1.3-2,2.5-4.1,3.8-6.1c1.1-1.1,2.4-2.2,3.6-3.3
			c6.2-5.1,13.9-9.3,22.5-9.8c8.2-0.4,16.2,4,19.9,11.3c3.2,6.3,2.2,13.5-0.5,19.4C258.4,141.3,256.5,144.4,254,146.9z"/>
		<path class="st2" d="M259.9,138.1c2.7-5.9,3.7-13.1,0.5-19.4c-3.7-7.3-11.8-11.6-19.9-11.3c-8.6,0.4-16.3,4.6-22.5,9.8
			c-0.8,0.7-1.6,1.4-2.4,2.1c4.2-2.8,8.4-5.6,13.3-7.3c8.1-2.8,18.6-2.1,25.4,4.2c3.1,2.8,5.3,6.8,6,10.7c0.6,3.1,0,6.3-1.1,9.1
			c-2.6,6.3-7.7,11.3-12.1,16.4c-0.5,0.6-1,1.2-1.5,1.7c2.9-2.3,5.9-4.6,8.4-7.2C256.5,144.4,258.4,141.3,259.9,138.1z"/>
		<path class="st0" d="M229.2,173.2c-3.1-1.3-3.7-4.5-3.3-7.3c0.8-5.2,4.8-9.1,8.8-12.2c3.6-2.8,7.4-5.2,10.4-8.6
			c2.5-2.9,4.6-6.2,5.6-10c1-3.7,0.7-7.8-1.6-11.2c-2.2-3.4-6-5.4-10-5.5c-4-0.1-7.8,1.5-11,3.6c-3.1,2-5.9,4.8-7.6,8.1
			c-0.2,0.4-0.9,0.3-0.9-0.2c0-3.3,1.1-6.4,2.5-9.3c1.9-4,4.7-7.7,7.9-10.8c-4.5,1.8-8.6,4.5-12.2,7.4c-1.3,1-2.5,2.1-3.6,3.3
			c-1.2,2.1-2.5,4.1-3.8,6.1c-1.4,2.1-2.7,4.3-3.8,6.5c-0.2,0.4-0.4,0.8-0.5,1.1c-0.7,2.8-1.2,5.6-2,8.4c0,0.2-0.5,0.2-0.4,0
			c0.2-1.3,0.4-2.6,0.6-3.9c-0.2,0.6-0.4,1.3-0.7,1.9c-1.6,4.6-3,9.4-4.2,14.2c-1.7,6.8-2.2,14.1-0.9,21.2c0.7,3.5,1.8,7,3.8,10.1
			c2,3.1,4.9,6.3,8.9,6.8c4.1,0.5,8-1.4,11-3.6c3.8-2.8,6.8-6.6,9-10.6c0.8-1.5,1.5-3.1,2-4.7C231.9,173.9,230.5,173.7,229.2,173.2z
			"/>
		<path class="st23" d="M249.8,140.3c0.8-5.4,3.6-13.9-2.2-18.2c-3.1-2.3-7.3-2.7-10.8-1.9c-3.8,0.9-7.2,3.1-9.8,5.8
			c-2.4,2.6-4.3,5.9-4.5,9.6c-0.1,1.9,0.4,3.5,1.2,5.2c1,2,2.5,3.9,2.9,6.1c0.1,0.8,0.2,2.1-0.7,2.5c-0.8,0.4-2,0.1-2.8,0.1
			c-2.1,0.1-4.1,0.7-5.9,1.4c-3.4,1.5-6.2,4.1-7.8,7.3c-3.7,7.3-1.8,17.2,5.2,23c0.4,0.3,1.4,0,0.9-0.5c-4.4-4.6-6.7-10.7-6.1-16.5
			c0.5,0.6,1,1.1,1.5,1.7c0.8,0.9,1.6,1.6,2.6,2.3c2,1.3,4.5,2,6.8,1.9c4.4-0.1,7.9-2.7,9.9-6.2c0.1-0.1-0.2-0.1-0.2-0.1
			c-2.3,2.8-5.8,5.2-9.8,5.1c-2.1,0-4.3-0.7-5.9-2c-1.7-1.3-2.7-3.2-4.4-4.5c0,0-0.1,0-0.1,0c0.1-0.6,0.3-1.1,0.4-1.7
			c1.1-3.3,3.3-6.2,6.4-8c1.6-1,3.5-1.6,5.5-1.9c1.6-0.2,3.6,0.3,5-0.5c3.6-1.8-0.1-7.3-1.4-9.7c-1.8-3.3-1.6-6.7,0-9.9
			c0.3-0.5,0.6-1.1,0.9-1.6c0,0,0,0,0.1,0c2.8-0.2,5.2,1.9,6.7,4.1c1.5,2.2,2.4,5.3,1.2,7.7c-0.1,0.3,0.4,0.4,0.5,0.2
			c1.5-1.8,1.3-4.3,0.5-6.5c-0.9-2.4-2.6-4.6-5-5.9c-1-0.5-2.1-0.8-3.2-0.8c3.6-4.7,9.9-8.3,16.2-6.3c8.2,2.6,5.5,12.7,5.2,18.5
			C248.9,140.6,249.7,140.7,249.8,140.3z"/>
	</g>
	<g>
		<defs>
			<path id="SVGID_1_" d="M39.8,121.9c0,0-2-11.3,5.3-19c7.3-7.7,17.1-8.9,23.9-6.9c6.7,2,7.7,10.6,4.2,17.5
				c-3.5,6.9-11.3,16.4-11.3,16.4S40.9,142.7,39.8,121.9z"/>
		</defs>
		<clipPath id="SVGID_00000043424996507585250630000013756278160405995145_">
			<use xlink:href="#SVGID_1_"  style="overflow:visible;"/>
		</clipPath>
		<g style="clip-path:url(#SVGID_00000043424996507585250630000013756278160405995145_);">
			<g>
				<g>
					<path class="st19" d="M73.6,117.4c-0.6,4.8-4.9,8.3-9.8,7.7c-4.8-0.6-8.3-4.9-7.7-9.8c0.6-4.8,4.9-8.3,9.8-7.7
						C70.7,108.2,74.1,112.6,73.6,117.4z"/>
					<path class="st20" d="M72.4,117.2c-0.5,4.2-4.3,7.1-8.4,6.7c-4.2-0.5-7.1-4.3-6.7-8.4c0.5-4.2,4.3-7.1,8.4-6.7
						C69.9,109.3,72.9,113.1,72.4,117.2z"/>
					<path class="st21" d="M69.3,116.9c-0.3,2.5-2.5,4.2-5,3.9c-2.5-0.3-4.2-2.5-3.9-5c0.3-2.5,2.5-4.2,5-3.9
						C67.8,112.2,69.6,114.4,69.3,116.9z"/>
				</g>
				<path class="st5" d="M63.3,112.8c-0.1,0.9-0.9,1.5-1.7,1.4c-0.9-0.1-1.5-0.9-1.4-1.7c0.1-0.9,0.9-1.5,1.7-1.4
					C62.8,111.2,63.4,112,63.3,112.8z"/>
				<path class="st5" d="M61.1,116c-0.1,0.5-0.5,0.9-1,0.8c-0.5-0.1-0.9-0.5-0.8-1c0.1-0.5,0.5-0.9,1-0.8
					C60.8,115.1,61.2,115.5,61.1,116z"/>
				<path class="st22" d="M71.2,116.4c0-0.3-1-0.1-1.1,0.1c-0.5,1.9-1.3,3.7-3.1,4.5c-0.9,0.4-1.8,0.6-2.8,0.6
					c-0.9-0.1-1.8-0.3-2.6-0.8c-0.9-0.5-1.6-1.3-2.1-2.2c-0.1-0.2-0.3-0.1-0.4,0c-0.7,0.8,0.2,2.2,0.7,2.8c2.8,3.2,8.5,2.4,10.5-0.7
					C71.1,119.6,71.5,117.9,71.2,116.4z"/>
			</g>
		</g>
	</g>
	<g>
		<polygon class="st16" points="81.8,94.7 96.9,94.5 96.9,90 81.9,90.3 		"/>
		<path class="st17" d="M81.8,95.1c-0.1,0-0.2,0-0.3-0.1c-0.1-0.1-0.1-0.2-0.1-0.3l0.1-4.4c0-0.2,0.2-0.4,0.4-0.4l15-0.2
			c0,0,0,0,0,0c0.1,0,0.2,0,0.3,0.1c0.1,0.1,0.1,0.2,0.1,0.3v4.5c0,0.2-0.2,0.4-0.4,0.4L81.8,95.1C81.8,95.1,81.8,95.1,81.8,95.1z
			 M82.3,90.7l-0.1,3.6l14.3-0.1v-3.7L82.3,90.7z"/>
	</g>
	<path class="st18" d="M94.8,90.1c0,0.7,0,1.3-0.1,2c0,0.3-0.1,0.7-0.5,0.8c-1.5,0.3-3.1,0.2-4.7,0.1c-0.8-0.1-1.6-0.2-2.4-0.2
		c-0.9-0.1-1.9-0.1-2.8-0.3c-0.1,0-0.2-0.1-0.2-0.2c0-0.7,0.1-1.3,0.1-1.9l-2.3,0l-0.1,4.4l15.1-0.2V90L94.8,90.1z"/>
	<g>
		<path class="st16" d="M106.3,144.1c-0.7,0-1.3-0.4-1.5-1c-11.9-28.4-8-60-7.8-61.3c0.1-0.8,0.7-1.3,1.5-1.4
			c0.5-0.1,53.3-5.7,77.3-6.7c0.5,0,0.9,0.2,1.3,0.5c0.3,0.3,0.5,0.8,0.5,1.3c-1.3,16.3-5.6,60.6-5.7,61c-0.1,0.7-0.6,1.3-1.3,1.4
			C170.3,137.9,146.2,143.6,106.3,144.1C106.3,144.1,106.3,144.1,106.3,144.1z M100.1,83.5c-0.6,6.1-2.4,33.2,7.3,57.3
			c34-0.5,56.1-4.8,61.2-5.9c0.7-6.9,4.1-42.1,5.4-57.9C151.6,78.1,108.2,82.6,100.1,83.5z"/>
		<path class="st17" d="M106.3,144.5c-0.8,0-1.6-0.5-1.9-1.3c-11.9-28.5-8-60.2-7.9-61.5c0.1-0.9,0.9-1.7,1.8-1.8
			c0.5-0.1,53.4-5.7,77.3-6.7c0.6,0,1.1,0.2,1.6,0.6c0.4,0.4,0.6,1,0.6,1.6c-1.2,15.4-5.2,56.3-5.7,60.9l0,0.1
			c-0.1,0.9-0.7,1.6-1.6,1.8C170.4,138.3,146.3,144,106.3,144.5C106.3,144.5,106.3,144.5,106.3,144.5z M175.8,74
			C175.8,74,175.8,74,175.8,74c-24,1-76.8,6.6-77.3,6.7c-0.6,0.1-1,0.5-1.1,1.1c-0.2,1.3-4,32.8,7.8,61.1c0.2,0.5,0.6,0.8,1.1,0.8h0
			c39.9-0.5,63.8-6.2,64.1-6.2c0.5-0.1,0.9-0.6,0.9-1.1l0-0.1c0.5-4.6,4.4-45.5,5.7-60.9c0-0.4-0.1-0.7-0.3-1
			C176.4,74.2,176.1,74,175.8,74z M107.4,141.2c-0.2,0-0.3-0.1-0.4-0.3c-9.9-24.5-7.9-52.2-7.4-57.5c0-0.2,0.2-0.4,0.4-0.4
			c8.4-0.9,51.6-5.4,73.9-6.5c0.1,0,0.2,0,0.3,0.1c0.1,0.1,0.1,0.2,0.1,0.3c-1.3,15.9-4.7,51-5.4,57.9c0,0.2-0.1,0.3-0.3,0.4
			C162.8,136.6,141,140.7,107.4,141.2C107.4,141.2,107.4,141.2,107.4,141.2z M100.5,83.8c-0.5,6-2.3,32.8,7.2,56.5
			c32.8-0.5,54.3-4.5,60.5-5.8c0.7-7.5,4-41.2,5.3-57.1C151.4,78.6,109.6,82.9,100.5,83.8z"/>
	</g>
	<path class="st18" d="M175.7,76.3c-9.6-0.7-19.2-0.4-28.8,0.4c-8.7,0.8-17.3,1.6-25.9,2.9c-4.2,0.6-8.4,1.3-12.6,1.9
		c-2,0.3-7,0.6-9,1.2c-0.1,0-0.2,0-0.3,0.1c-0.8,1-0.9,4-1.1,5.3c-0.4,2-0.6,4-0.6,6c0,4.3,0.6,8.6,1,12.8c0.2,2.2,0.3,4.4,0.5,6.6
		c0.1,1.1,0.2,2.3,0.5,3.4c0.1,0.7,0.4,1.5,0.5,2.2c0.2,1.2,0.3,2.6-0.8,3.4c-0.1,0.1-0.3,0.2-0.4,0.2c1.3,6.7,3.2,13.6,6.1,20.4
		c0.3,0.6,0.9,1,1.5,1h0c39.9-0.5,63.9-6.2,64.2-6.2c0.7-0.2,1.2-0.7,1.3-1.4c0-0.2,0.7-7,1.6-16.1c-1.1-1.9-0.9-4.4-0.7-6.6
		c0.4-4.3,0.9-8.6,1.4-12.8c0.5-4.3,1-8.6,1.3-12.9C175.7,84.1,175.9,80.2,175.7,76.3z M168.6,134.9c-5.1,1.1-27.2,5.3-61.2,5.9
		c-9.4-23.2-7.9-50.1-7.3-57.5c10-1,52.2-5.2,73.8-6.3C172.7,92.9,169.3,128,168.6,134.9z"/>
	<g>
		<path class="st16" d="M45,151.5C45,151.5,45,151.5,45,151.5c-0.2,0-15.9-0.2-33-0.9c-0.7,0-1.3-0.5-1.5-1.1
			c-1.4-4.3-9.7-37.5-4.4-58.3c0.2-0.6,0.7-1.1,1.3-1.2c17.4-3.1,72.4-7.4,73-7.5c0.4,0,0.9,0.1,1.2,0.4c0.3,0.3,0.5,0.7,0.6,1.1
			L83,97.8c0,0.2,0,0.5-0.1,0.7c-9.5,24-35.6,51.3-36.7,52.4C45.9,151.3,45.5,151.5,45,151.5z M13.4,147.3
			c14.5,0.6,27.8,0.8,30.9,0.9c3.6-3.9,26.7-29,35.4-50.5L79,85.8c-9.2,0.7-53.5,4.4-69.9,7.1C4.7,112.4,11.8,141.4,13.4,147.3z"/>
		<path class="st17" d="M45,151.9L45,151.9c-0.2,0-15.9-0.2-33-0.9c-0.8,0-1.6-0.6-1.9-1.4c-1.4-4.3-9.7-37.6-4.4-58.5
			c0.2-0.8,0.8-1.4,1.6-1.5c17.1-3,70.7-7.3,73-7.5c0.6,0,1.1,0.1,1.5,0.5c0.4,0.4,0.7,0.9,0.7,1.4l0.8,13.9c0,0.3,0,0.6-0.1,0.9
			c-9.6,24-35.6,51.4-36.7,52.6C46.1,151.6,45.6,151.9,45,151.9z M80.6,82.8C80.6,82.8,80.5,82.8,80.6,82.8c-2.4,0.2-56,4.5-73,7.5
			c-0.5,0.1-0.9,0.4-1,0.9c-5.3,20.8,3,53.8,4.4,58.1c0.2,0.5,0.6,0.8,1.1,0.8c17.1,0.8,32.8,0.9,32.9,0.9l0,0.4V151
			c0.3,0,0.7-0.1,0.9-0.4c1.1-1.1,27.1-28.4,36.6-52.3c0.1-0.2,0.1-0.3,0.1-0.5L81.8,84c0-0.3-0.2-0.6-0.4-0.9
			C81.2,82.9,80.9,82.8,80.6,82.8z M44.3,148.6C44.3,148.6,44.3,148.6,44.3,148.6c-3.7,0-16.7-0.3-31-0.9c-0.2,0-0.3-0.1-0.4-0.3
			c-1.5-5.6-8.8-34.8-4.3-54.5c0-0.2,0.2-0.3,0.3-0.3c16.5-2.7,61.2-6.4,70-7.1c0.1,0,0.2,0,0.3,0.1c0.1,0.1,0.1,0.2,0.1,0.3
			l0.7,11.8c0,0.1,0,0.1,0,0.2c-8.6,21.4-31,45.9-35.4,50.6C44.6,148.5,44.5,148.6,44.3,148.6z M13.7,146.9
			c13.9,0.6,26.6,0.8,30.4,0.9c4.7-5,26.6-29.1,35.1-50.2l-0.6-11.3c-9.6,0.8-52.7,4.4-69.2,7C5.2,112.5,12.1,140.7,13.7,146.9z"/>
	</g>
	<path class="st18" d="M56.6,85.3c-10,0.6-19.9,2-29.8,3.7c-2.4,0.4-4.8,0.9-7.2,1.1c-2.4,0.3-4.8,0.5-7.1,0.9
		c-1.3,0.2-3.6,0.1-4.6,1c-0.5,0.4-0.5,1.3-0.6,1.9c-0.1,0.8-0.2,1.6-0.3,2.3c-0.5,2.2-0.9,4.4-1.1,6.6c-0.2,2.4-0.2,4.7-0.2,7.1
		c0.1,5,0.2,10.1,0.9,15c0.5,3,1.5,6,1.9,9c0.1,0.8,0.2,1.9-0.3,2.7c-0.1,0.2-0.3,0.4-0.5,0.5c1.2,6.2,2.4,10.7,2.9,12.1
		c0.2,0.6,0.8,1.1,1.5,1.1c17.1,0.8,32.8,0.9,33,0.9h0c0.4,0,0.9-0.2,1.2-0.5c1.1-1.2,27.1-28.5,36.7-52.4c0.1-0.2,0.1-0.5,0.1-0.7
		l-0.8-13.7C73.7,84.8,65.2,84.9,56.6,85.3z M44.3,148.2c-3.2,0-16.4-0.3-30.9-0.9c-1.6-5.9-8.7-34.8-4.3-54.4
		c16.5-2.7,60.7-6.4,69.9-7.1l0.7,11.8C71,119.2,48,144.3,44.3,148.2z"/>
	<path class="st1" d="M121.6,280.1c-0.6,0-1.2-0.2-1.7-0.5c-6-3.9-18.6-12.1-35-6.1c-0.1,0-0.2,0-0.3,0c-0.1-0.1-0.2-0.1-0.2-0.3
		c-5.8-20.8-32.3-58.1-32.6-58.5c-0.1-0.2-0.1-0.4,0.1-0.6c0.2-0.1,0.4-0.1,0.6,0c0.1,0.1,14,13.1,53.4,3.9
		c39.5-9.2,61.5-41.5,61.7-41.8c0.1-0.2,0.3-0.2,0.5-0.1c0.2,0.1,0.3,0.3,0.2,0.5c-0.1,0.2-8.2,21.7-19.1,49.8l-1.9,5
		c-9.2,23.9-17.9,46.4-24.5,48.6C122.3,280.1,121.9,280.1,121.6,280.1z M96.6,270.5c10.9,0,19.1,5.4,23.7,8.4
		c0.7,0.4,1.3,0.5,2.1,0.3c6.2-2,15.3-25.4,24-48.1l1.9-5c8.6-22.2,15.5-40.2,18-46.9c-6,7.8-27,31.9-60.4,39.7
		c-31.7,7.4-46.9,0.8-52.1-2.5c5.7,8.2,25.9,38.1,31.1,56.2C89.1,271.1,93,270.5,96.6,270.5z"/>
	<path class="st0" d="M56.1,213.4c0,0,17.8-5.3,27.2-14.6c9.4-9.4,17-16.7,28.4-9.7c11.4,7,24.2-5,23.8-18.9
		c21.9,8.8,26.2,8.8,26.2,8.8S123.6,229.2,56.1,213.4z"/>
	<path class="st0" d="M119.1,127.7c0,0,16.7,9.2,35.1-4C146.1,140,131.7,143.6,119.1,127.7z"/>
	<g>
		<path class="st2" d="M72.7,152.1c-10.4-1.8-21.7-0.7-31.7,2.8c-9.8,3.4-19.5,9.5-24.8,18.7c-2.8,4.9-4.3,10.7-2.4,16.3
			c0.3,0.7,1.6-0.5,1.4-1.2c-2.6-10.2,4.4-19.5,12.1-25.2c8.1-5.9,18-9.1,27.9-10.2c5.6-0.6,11.2-0.6,16.9-0.3
			C72.4,152.9,73.1,152.1,72.7,152.1z"/>
		<path class="st2" d="M84.6,103.4c-9,11.9-17.9,23.9-26.7,36c-2.5,3.5-5.1,6.9-7.5,10.5c-0.6,0.9,0.4,1.3,1,0.5
			c4.7-5.8,8.9-12,13.3-18.1c4.4-6.1,8.8-12.2,13.1-18.3c2.4-3.4,4.8-6.9,7.3-10.4C85.4,103.1,84.9,103,84.6,103.4z"/>
	</g>
	<path class="st0" d="M133.6,154.2c0,0,2.9,8,16,11.3c13.1,3.3,29.5,5.8,28.8,21.5c8.8-11.3,13.5-27-5.5-34.3
		C154.1,145.4,128.5,144.7,133.6,154.2z"/>
	<path class="st0" d="M117.2,74.2c0,0,22.2-16.8,38.3-1.1c8.4-8.4-4.4-23.3-19-21.1C122,54.1,117.2,74.2,117.2,74.2z"/>
	<path class="st2" d="M185.4,168.9c-0.3-3.2-1.2-6.4-2.8-9.2c-3.5-5.8-10.4-8.3-16.7-9.9c-4.1-1.1-8.4-1.6-12.6-1.6
		c-0.2,0-0.5,0.4-0.3,0.5c6.7,0.5,13.5,2.1,19.6,4.9c2.8,1.3,5.5,2.9,7.4,5.3c2,2.5,3.2,5.6,3.7,8.7c0.6,3.6,0.4,7.2-1,10.7
		c-0.3,0.8,0.6,0.4,0.8,0C185.3,175.5,185.7,172.1,185.4,168.9z"/>
	<g>
		<path class="st2" d="M121.9,256.7c-3.5-0.6-7.2-0.2-10.6,0.8c-3.3,0.9-6.7,2.5-9.1,5.1c-0.2,0.2-0.2,0.6,0.1,0.4
			c2.8-2,5.7-3.5,9-4.3c3.3-0.8,6.7-0.8,10-0.9C121.7,257.7,122.3,256.8,121.9,256.7z"/>
		<path class="st2" d="M124.9,257c-0.1,0-0.2-0.1-0.4-0.1c-0.1,0-0.1,0-0.2,0c-0.2,0-0.3,0-0.5-0.1c-0.2,0-0.3,0-0.5,0
			c-0.1,0-0.2,0-0.3,0c-0.1,0-0.2,0-0.3,0c-0.1,0-0.3,0.1-0.4,0.2c-0.1,0.1-0.1,0.2,0,0.2c0.1,0,0.1,0.1,0.2,0.1
			c0.1,0,0.2,0.1,0.2,0.1c0.2,0,0.3,0.1,0.5,0.1c0.2,0,0.3,0.1,0.5,0.1c0.2,0,0.4,0,0.6,0c0.2,0,0.4-0.1,0.5-0.3
			c0,0,0.1-0.1,0.1-0.2C125,257.1,125,257,124.9,257z"/>
	</g>
	<path class="st16" d="M5.4,118.2c0,0-1-21.6,2.2-26.9c4.1-1,28.8-4.2,28.8-4.2S8.9,89.9,7.2,90.5C5.6,91.1,3.2,106.4,5.4,118.2z"/>
	<path class="st16" d="M97.1,108.5c0,0-1-21.6,2.2-26.9c4.1-1,28.8-4.2,28.8-4.2s-27.5,2.9-29.1,3.5C97.3,81.4,95,96.7,97.1,108.5z"
		/>
</g>
</svg>
